# xmcd
#
# Track frame offsets: 
#        150
#        22347
#        40187
#        57345
#        76242
#        98077
#        117987
#        142770
#        159655
#        172792
#        191107
#
# Disc length: 2787 seconds
#
# Revision: 6
# Processed by: cddbd v1.5.2PL0 Copyright (c) Steve Scherf et al.
# Submitted via: ExactAudioCopyFreeDBPlugin 1.0
#
DISCID=8a0ae10b
DTITLE=Tinsley Ellis - Kingpin
DYEAR=2000
DGENRE=Blues
TTITLE0=Heart Fixing Business
TTITLE1=Sweet Pea
TTITLE2=Dyin' To Do Wrong
TTITLE3=Can't Play That Way
TTITLE4=I've Got To Use My Imagination
TTITLE5=I Got To Moan
TTITLE6=I'll Be Loving You
TTITLE7=The Other Side Of Town
TTITLE8=Days Of Old
TTITLE9=Slingshots and Boomerangs
TTITLE10=Let's Think About It
EXTD=YEAR: 1994
EXTT0=
EXTT1=
EXTT2=
EXTT3=
EXTT4=
EXTT5=
EXTT6=
EXTT7=
EXTT8=
EXTT9=
EXTT10=
PLAYORDER=
